#!OML:ASF H:\LiuWeirdWalks\Patient Classification 1\Patient 1\Session 1\male.ASF
:FULLY-SPECIFIED
:DEGREES
706
root 2.49256 17.986 24.8897 1.25599 7.72844 -10.5668
lowerback 14.3057 -2.19409 -14.2547
upperback 2.01052 -5.4394 -6.7093
thorax -5.22517 -2.41163 1.75035
lowerneck -17.8236 1.5895 7.00587
upperneck 19.7427 -1.9256 9.31287
head 9.3152 0.679325 1.81405
rclavicle 3.81667e-014 4.13472e-014
rhumerus -18.7107 -26.4495 3.11515
rradius 37.0313
rwrist -17.6117
rhand -26.8978 -4.51834
rfingers 7.12502
rthumb -0.321352 -34.4978
lclavicle 3.81667e-014 4.13472e-014
lhumerus -42.3357 37.9258 27.0194
lradius 38.1745
lwrist 11.4978
lhand -20.6739 -2.11774
lfingers 7.12502
lthumb 5.68924 27.7859
rfemur -12.4 -9.25373 27.5291
rtibia 48.535
rfoot -12.0382 -31.2168
rtoes 1.27473
lfemur -13.0454 -4.91513 -3.31758
ltibia 30.453
lfoot -12.5513 13.4992
ltoes -10.0383
707
root 2.489 17.9827 24.9481 1.27214 7.68208 -10.3988
lowerback 14.4791 -2.23471 -14.4102
upperback 1.92449 -5.56371 -6.71437
thorax -5.38625 -2.45468 1.85932
lowerneck -17.5697 1.65393 7.11149
upperneck 19.6955 -1.8008 9.18479
head 9.24707 0.721606 1.76444
rclavicle -7.95139e-016 8.90555e-014
rhumerus -18.3157 -26.5454 3.27653
rradius 36.4323
rwrist -16.8748
rhand -26.6714 -4.28142
rfingers 7.12502
rthumb -0.102669 -34.2611
lclavicle -7.95139e-016 8.90555e-014
lhumerus -42.6135 37.8143 27.0234
lradius 38.1346
lwrist 11.4201
lhand -20.6509 -2.13914
lfingers 7.12502
lthumb 5.71142 27.7639
rfemur -13.1568 -9.36941 27.3309
rtibia 48.2424
rfoot -12.5286 -31.1847
rtoes 0.937162
lfemur -12.804 -5.24604 -3.53715
ltibia 30.4567
lfoot -12.6651 13.992
ltoes -9.82237
708
root 2.4864 17.9791 25.0064 1.29512 7.62689 -10.2065
lowerback 14.6463 -2.27466 -14.5642
upperback 1.84028 -5.68593 -6.7146
thorax -5.54139 -2.49674 1.97228
lowerneck -17.3254 1.71954 7.21398
upperneck 19.6565 -1.67596 9.05957
head 9.1841 0.7649 1.71658
rclavicle -7.15625e-015 -6.36111e-015
rhumerus -17.953 -26.6221 3.41412
rradius 35.895
rwrist -16.217
rhand -26.4944 -4.12264
rfingers 7.12502
rthumb 0.0682237 -34.1024
lclavicle -7.15625e-015 -6.36111e-015
lhumerus -42.868 37.7003 27.0083
lradius 38.1112
lwrist 11.3659
lhand -20.634 -2.13779
lfingers 7.12502
lthumb 5.72773 27.7648
rfemur -13.9505 -9.48179 27.0873
rtibia 47.9791
rfoot -12.9679 -31.1554
rtoes 0.648114
lfemur -12.5347 -5.58011 -3.7927
ltibia 30.4188
lfoot -12.7589 14.4939
ltoes -9.6214
709
root 2.48426 17.975 25.0647 1.32198 7.55655 -9.99653
lowerback 14.7925 -2.30725 -14.713
upperback 1.78214 -5.78974 -6.70629
thorax -5.65781 -2.53309 2.08706
lowerneck -17.1561 1.78311 7.3028
upperneck 19.6227 -1.56089 8.93975
head 9.1373 0.805648 1.67262
rclavicle 3.97569e-014 3.18055e-014
rhumerus -17.6845 -26.6683 3.5389
rradius 35.5178
rwrist -15.7366
rhand -26.3997 -4.06447
rfingers 7.12502
rthumb 0.159662 -34.0442
lclavicle 3.97569e-014 3.18055e-014
lhumerus -43.0549 37.6376 27.0006
lradius 38.0946
lwrist 11.3215
lhand -20.6219 -2.1222
lfingers 7.12502
lthumb 5.73945 27.7801
rfemur -14.7779 -9.57449 26.8094
rtibia 47.7445
rfoot -13.3571 -31.1259
rtoes 0.395119
lfemur -12.2309 -5.89714 -4.0732
ltibia 30.3349
lfoot -12.8304 14.9899
ltoes -9.44866
710
root 2.48204 17.9704 25.1233 1.34918 7.46309 -9.77591
lowerback 14.9022 -2.3255 -14.853
upperback 1.77427 -5.858 -6.68628
thorax -5.70229 -2.55888 2.20042
lowerneck -17.1321 1.84157 7.36674
upperneck 19.5965 -1.46654 8.82847
head 9.12053 0.840102 1.63512
rclavicle -3.57812e-014 0
rhumerus -17.5668 -26.686 3.66385
rradius 35.3847
rwrist -15.484
rhand -26.3891 -4.0986
rfingers 7.12502
rthumb 0.169942 -34.0783
lclavicle -3.57812e-014 0
lhumerus -43.1302 37.6762 27.0269
lradius 38.0754
lwrist 11.2727
lhand -20.6132 -2.10569
lfingers 7.12502
lthumb 5.74777 27.7964
rfemur -15.6333 -9.62902 26.5086
rtibia 47.5343
rfoot -13.6978 -31.093
rtoes 0.170248
lfemur -11.8864 -6.17561 -4.36681
ltibia 30.2021
lfoot -12.8783 15.4654
ltoes -9.31178
711
root 2.47921 17.9653 25.1821 1.37497 7.3405 -9.54948
lowerback 14.9723 -2.3278 -14.9859
upperback 1.81873 -5.88752 -6.65321
thorax -5.67108 -2.57321 2.31372
lowerneck -17.2598 1.89622 7.40843
upperneck 19.5747 -1.39169 8.72286
head 9.13353 0.868535 1.60291
rclavicle 5.56597e-015 -1.27222e-014
rhumerus -17.5867 -26.6912 3.78263
rradius 35.479
rwrist -15.4479
rhand -26.442 -4.14995
rfingers 7.12502
rthumb 0.118869 -34.1297
lclavicle 5.56597e-015 -1.27222e-014
lhumerus -43.0932 37.8193 27.0834
lradius 38.0538
lwrist 11.2212
lhand -20.6078 -2.09825
lfingers 7.12502
lthumb 5.75301 27.8037
rfemur -16.5115 -9.63031 26.1933
rtibia 47.3417
rfoot -13.9887 -31.0523
rtoes -0.0368687
lfemur -11.4991 -6.39805 -4.66454
ltibia 30.0196
lfoot -12.902 15.9088
ltoes -9.21327
712
root 2.4754 17.9598 25.2412 1.40028 7.18471 -9.31997
lowerback 15.0115 -2.31697 -15.1183
upperback 1.8963 -5.88765 -6.60688
thorax -5.58861 -2.57829 2.43312
lowerneck -17.4834 1.95129 7.44086
upperneck 19.5495 -1.32497 8.61631
head 9.16306 0.894535 1.57218
rclavicle 7.4743e-014 3.18055e-014
rhumerus -17.6795 -26.7038 3.87508
rradius 35.7071
rwrist -15.5577
rhand -26.5229 -4.12359
rfingers 7.12502
rthumb 0.0407439 -34.1033
lclavicle 7.4743e-014 3.18055e-014
lhumerus -42.9832 38.0317 27.138
lradius 38.036
lwrist 11.1714
lhand -20.6028 -2.10086
lfingers 7.12502
lthumb 5.75787 27.8009
rfemur -17.4097 -9.56797 25.8691
rtibia 47.1576
rfoot -14.2247 -30.9997
rtoes -0.229924
lfemur -11.0729 -6.55488 -4.96037
ltibia 29.789
lfoot -12.9011 16.3153
ltoes -9.14837
713
root 2.47058 17.9544 25.3007 1.42677 6.99695 -9.08426
lowerback 15.0337 -2.29894 -15.259
upperback 1.98161 -5.87442 -6.54939
thorax -5.48792 -2.57855 2.56524
lowerneck -17.7325 2.0112 7.47792
upperneck 19.5193 -1.25399 8.50289
head 9.19541 0.922337 1.53926
rclavicle -5.64548e-014 3.18055e-015
rhumerus -17.764 -26.7285 3.9162
rradius 35.9551
rwrist -15.7543
rhand -26.6108 -3.94733
rfingers 7.12502
rthumb -0.0441869 -33.9271
lclavicle -5.64548e-014 3.18055e-015
lhumerus -42.8532 38.2619 27.1519
lradius 38.0335
lwrist 11.1363
lhand -20.5975 -2.10721
lfingers 7.12502
lthumb 5.763 27.7944
rfemur -18.3228 -9.44565 25.5324
rtibia 46.9705
rfoot -14.3957 -30.926
rtoes -0.416976
lfemur -10.6144 -6.64953 -5.25772
ltibia 29.5152
lfoot -12.8778 16.6886
ltoes -9.10423
714
root 2.46498 17.9495 25.3606 1.45507 6.78277 -8.83894
lowerback 15.0527 -2.28047 -15.4113
upperback 2.04954 -5.86419 -6.48434
thorax -5.40224 -2.57859 2.71231
lowerneck -17.9313 2.07855 7.53141
upperneck 19.479 -1.16792 8.37888
head 9.21481 0.955293 1.50117
rclavicle -1.11319e-014 8.5875e-014
rhumerus -17.7792 -26.7475 3.88742
rradius 36.1319
rwrist -15.9897
rhand -26.6943 -3.59758
rfingers 7.12502
rthumb -0.124853 -33.5773
lclavicle -1.11319e-014 8.5875e-014
lhumerus -42.7527 38.456 27.0894
lradius 38.0541
lwrist 11.1243
lhand -20.5937 -2.11056
lfingers 7.12502
lthumb 5.7666 27.791
rfemur -19.2418 -9.27662 25.1778
rtibia 46.7657
rfoot -14.4895 -30.8221
rtoes -0.602233
lfemur -10.131 -6.69638 -5.56235
ltibia 29.205
lfoot -12.8358 17.0388
ltoes -9.06189
715
root 2.45907 17.9454 25.4213 1.4836 6.55194 -8.58413
lowerback 15.0801 -2.26732 -15.5682
upperback 2.08584 -5.86826 -6.41499
thorax -5.35311 -2.58185 2.87021
lowerneck -18.034 2.1529 7.60603
upperneck 19.4266 -1.06277 8.24317
head 9.2123 0.994323 1.45658
rclavicle -2.54444e-014 -2.22639e-014
rhumerus -17.6944 -26.7357 3.78155
rradius 36.1867
rwrist -16.2573
rhand -26.7884 -3.10896
rfingers 7.12502
rthumb -0.215732 -33.0886
lclavicle -2.54444e-014 -2.22639e-014
lhumerus -42.7079 38.5781 26.934
lradius 38.1017
lwrist 11.1388
lhand -20.5943 -2.10443
lfingers 7.12502
lthumb 5.76604 27.7971
rfemur -20.1548 -9.08194 24.8029
rtibia 46.5267
rfoot -14.4939 -30.6783
rtoes -0.786092
lfemur -9.63033 -6.71612 -5.87807
ltibia 28.8675
lfoot -12.779 17.3789
ltoes -9.00311
716
root 2.45339 17.9425 25.4831 1.5078 6.31483 -8.32257
lowerback 15.1184 -2.26253 -15.7158
upperback 2.09222 -5.88884 -6.34328
thorax -5.34112 -2.58956 3.03013
lowerneck -18.0408 2.23106 7.69728
upperneck 19.3662 -0.942504 8.0973
head 9.18956 1.03776 1.40626
rclavicle -8.74653e-015 5.725e-014
rhumerus -17.5157 -26.6828 3.60572
rradius 36.1188
rwrist -16.5559
rhand -26.9153 -2.57222
rfingers 7.12502
rthumb -0.338274 -32.5517
lclavicle -8.74653e-015 5.725e-014
lhumerus -42.7149 38.6201 26.6943
lradius 38.1749
lwrist 11.1784
lhand -20.6052 -2.09179
lfingers 7.12502
lthumb 5.75551 27.81
rfemur -21.0445 -8.8844 24.408
rtibia 46.2361
rfoot -14.4029 -30.4862
rtoes -0.96675
lfemur -9.11622 -6.73189 -6.20703
ltibia 28.5124
lfoot -12.7125 17.7238
ltoes -8.91376
717
root 2.44826 17.941 25.5463 1.52278 6.07977 -8.06473
lowerback 15.1668 -2.26716 -15.8364
upperback 2.07962 -5.92246 -6.26657
thorax -5.35565 -2.60148 3.18463
lowerneck -17.9803 2.31074 7.79911
upperneck 19.2989 -0.811742 7.93981
head 9.15228 1.08368 1.35049
rclavicle 3.57812e-014 6.67916e-014
rhumerus -17.2645 -26.6006 3.37458
rradius 35.9505
rwrist -16.8729
rhand -27.0848 -2.09351
rfingers 7.12502
rthumb -0.501974 -32.0727
lclavicle 3.57812e-014 6.67916e-014
lhumerus -42.7544 38.5975 26.3916
lradius 38.2683
lwrist 11.2363
lhand -20.6299 -2.07811
lfingers 7.12502
lthumb 5.7317 27.8244
rfemur -21.8964 -8.69738 24.004
rtibia 45.8788
rfoot -14.2174 -30.245
rtoes -1.13866
lfemur -8.59206 -6.76123 -6.54113
ltibia 28.1499
lfoot -12.6407 18.0846
ltoes -8.7869
718
root 2.44378 17.9408 25.6111 1.52455 5.85197 -7.82351
lowerback 15.2202 -2.28011 -15.9133
upperback 2.06403 -5.96108 -6.17975
thorax -5.37842 -2.61599 3.32844
lowerneck -17.9027 2.38965 7.90164
upperneck 19.2346 -0.677857 7.77032
head 9.1131 1.12964 1.29067
rclavicle -6.36111e-014 -7.95139e-014
rhumerus -16.9686 -26.522 3.10775
rradius 35.7139
rwrist -17.1701
rhand -27.2858 -1.76235
rfingers 7.12502
rthumb -0.696145 -31.741
lclavicle -6.36111e-014 -7.95139e-014
lhumerus -42.7986 38.5405 26.0543
lradius 38.3741
lwrist 11.3054
lhand -20.6678 -2.07384
lfingers 7.12502
lthumb 5.69509 27.8296
rfemur -22.7 -8.52569 23.6066
rtibia 45.4444
rfoot -13.9441 -29.96
rtoes -1.29873
lfemur -8.05971 -6.81418 -6.86771
ltibia 27.7877
lfoot -12.5667 18.4666
ltoes -8.62365
719
root 2.43987 17.9416 25.6774 1.51209 5.63315 -7.61094
lowerback 15.2742 -2.29968 -15.9347
upperback 2.05646 -5.99747 -6.07731
thorax -5.39663 -2.63126 3.45941
lowerneck -17.844 2.46686 7.99823
upperneck 19.1773 -0.544911 7.58787
head 9.08002 1.17418 1.22767
rclavicle -8.74653e-015 1.59028e-014
rhumerus -16.6474 -26.4823 2.82164
rradius 35.4289
rwrist -17.3975
rhand -27.4892 -1.6241
rfingers 7.12502
rthumb -0.892559 -31.602
lclavicle -8.74653e-015 1.59028e-014
lhumerus -42.8296 38.477 25.7024
lradius 38.4854
lwrist 11.3784
lhand -20.7148 -2.09041
lfingers 7.12502
lthumb 5.64974 27.8143
rfemur -23.452 -8.366 23.2313
rtibia 44.9295
rfoot -13.5951 -29.6404
rtoes -1.44584
lfemur -7.52084 -6.8919 -7.1729
ltibia 27.4304
lfoot -12.4922 18.868
ltoes -8.43279
720
root 2.43627 17.9428 25.7449 1.49145 5.42233 -7.42316
lowerback 15.3253 -2.32257 -15.9076
upperback 2.05759 -6.02738 -5.95799
thorax -5.40739 -2.64537 3.58167
lowerneck -17.812 2.54236 8.09049
upperneck 19.1246 -0.41317 7.38828
head 9.05351 1.21688 1.15983
rclavicle 2.94201e-014 -2.22639e-014
rhumerus -16.3165 -26.4979 2.53008
rradius 35.1067
rwrist -17.5127
rhand -27.6604 -1.6681
rfingers 7.12502
rthumb -1.05788 -31.6452
lclavicle 2.94201e-014 -2.22639e-014
lhumerus -42.8404 38.4224 25.3451
lradius 38.5947
lwrist 11.4493
lhand -20.7619 -2.13205
lfingers 7.12502
lthumb 5.60428 27.7738
rfemur -24.1604 -8.20975 22.877
rtibia 44.3373
rfoot -13.1802 -29.2973
rtoes -1.58395
lfemur -6.98006 -6.98932 -7.45823
ltibia 27.0775
lfoot -12.4158 19.2813
ltoes -8.22848
